<svg width="902.144" height="192.001" viewBox="0 0 902.144 192.001"
    xmlns="http://www.w3.org/2000/svg">
    <g id="svgGroup" stroke-linecap="round" fill-rule="nonzero" font-size="9pt" stroke="#000"
        stroke-width="0.25mm" fill="#000" style="stroke:#000;stroke-width:0.25mm;fill:#000">
        <path
            d="M 62.208 82.432 L 5.888 92.416 L 5.888 24.576 L 0 0 L 158.208 0 L 158.208 69.376 Q 158.208 83.706 155.171 93.914 A 44.488 44.488 0 0 1 151.04 103.68 A 40.434 40.434 0 0 1 138.932 116.53 Q 133.998 119.957 127.689 122.542 A 71.826 71.826 0 0 1 127.488 122.624 L 158.208 192 L 96.512 192 L 82.176 133.632 L 62.208 136.704 L 62.208 192 L 5.888 192 L 5.888 103.68 L 87.808 89.344 A 26.867 26.867 0 0 0 91.99 88.347 Q 94.129 87.637 95.747 86.597 A 10.938 10.938 0 0 0 98.816 83.712 A 13.299 13.299 0 0 0 100.501 80.277 Q 101.888 76.168 101.888 69.632 L 101.888 49.664 L 62.208 49.664 L 62.208 82.432 Z"
            id="0" />
        <path
            d="M 261.888 142.336 L 261.888 24.576 L 255.744 0 L 318.464 0 L 318.464 192 L 214.272 192 Q 205.056 192 196.864 188.288 Q 188.672 184.576 182.656 178.304 Q 176.64 172.032 173.056 163.712 Q 169.472 155.392 169.472 146.176 L 169.472 24.576 L 163.328 0 L 226.048 0 L 226.048 128.512 A 16.012 16.012 0 0 0 226.682 133.124 A 12.594 12.594 0 0 0 229.888 138.496 Q 233.728 142.336 239.872 142.336 L 261.888 142.336 Z"
            id="1" />
        <path
            d="M 329.728 24.576 L 323.584 0 L 482.048 0 L 482.048 78.848 L 425.216 68.864 L 425.216 49.664 L 386.048 49.664 L 386.048 56.064 L 386.048 57.6 Q 386.048 63.622 387.622 66.653 A 6.763 6.763 0 0 0 388.608 68.096 Q 391.168 70.912 397.824 72.192 L 443.136 80.128 Q 452.566 81.778 459.608 84.84 A 51.089 51.089 0 0 1 460.8 85.376 Q 468.224 88.832 472.832 95.36 Q 477.44 101.888 479.616 112.256 Q 481.792 122.624 481.792 137.984 L 481.792 192 L 329.728 192 L 329.728 116.48 L 386.304 126.464 L 386.304 142.336 L 425.216 142.336 L 425.216 134.4 Q 425.216 130.048 421.632 127.232 A 19.057 19.057 0 0 0 415.833 124.158 A 24.115 24.115 0 0 0 412.928 123.392 L 378.112 117.248 Q 363.131 114.716 353.802 111.836 A 79.736 79.736 0 0 1 350.08 110.592 A 42.277 42.277 0 0 1 343.939 107.826 Q 340.737 106.04 338.394 103.846 A 21.216 21.216 0 0 1 335.744 100.864 Q 331.518 95.068 330.595 86.196 A 45.383 45.383 0 0 1 330.496 85.12 Q 329.728 75.52 329.728 60.16 L 329.728 24.576 Z"
            id="2" />
        <path
            d="M 487.168 0 L 549.888 0 L 549.888 68.352 L 582.4 0 L 662.528 0 L 594.688 81.152 L 611.584 78.336 L 662.272 192 L 594.944 192 L 573.696 106.496 L 549.888 135.168 L 549.888 192 L 493.312 192 L 493.312 24.576 L 487.168 0 Z"
            id="3" />
        <path d="M 667.648 0 L 730.368 0 L 730.368 192 L 673.792 192 L 673.792 24.576 L 667.648 0 Z"
            id="4" />
        <path
            d="M 735.744 0 L 826.624 0 L 845.824 115.2 L 845.824 0 L 902.144 0 L 902.144 192 L 826.112 192 L 798.208 65.28 L 798.208 192 L 741.888 192 L 741.888 24.576 L 735.744 0 Z"
            id="5" />
    </g>
</svg>